<?xml version="1.0" encoding="UTF-8" standalone="no"?>
<!-- Created with Inkscape (http://www.inkscape.org/) -->

<svg
   xmlns:dc="http://purl.org/dc/elements/1.1/"
   xmlns:cc="http://creativecommons.org/ns#"
   xmlns:rdf="http://www.w3.org/1999/02/22-rdf-syntax-ns#"
   xmlns:svg="http://www.w3.org/2000/svg"
   xmlns="http://www.w3.org/2000/svg"
   xmlns:sodipodi="http://sodipodi.sourceforge.net/DTD/sodipodi-0.dtd"
   xmlns:inkscape="http://www.inkscape.org/namespaces/inkscape"
   width="273.53406mm"
   height="50.002472mm"
   viewBox="0 0 273.53406 50.002472"
   version="1.1"
   id="svg8"
   inkscape:version="0.92.2 (5c3e80d, 2017-08-06)"
   sodipodi:docname="bendigoKanganTogether.svg">
  <defs
     id="defs2" />
  <sodipodi:namedview
     id="base"
     pagecolor="#ffffff"
     bordercolor="#666666"
     borderopacity="1.0"
     inkscape:pageopacity="0.0"
     inkscape:pageshadow="2"
     inkscape:zoom="0.9899495"
     inkscape:cx="538.85422"
     inkscape:cy="56.897091"
     inkscape:document-units="mm"
     inkscape:current-layer="layer1"
     showgrid="false"
     fit-margin-top="0"
     fit-margin-left="0"
     fit-margin-right="0"
     fit-margin-bottom="0"
     inkscape:window-width="1920"
     inkscape:window-height="1017"
     inkscape:window-x="1912"
     inkscape:window-y="-8"
     inkscape:window-maximized="1" />
  <metadata
     id="metadata5">
    <rdf:RDF>
      <cc:Work
         rdf:about="">
        <dc:format>image/svg+xml</dc:format>
        <dc:type
           rdf:resource="http://purl.org/dc/dcmitype/StillImage" />
        <dc:title></dc:title>
      </cc:Work>
    </rdf:RDF>
  </metadata>
  <g
     inkscape:label="Layer 1"
     inkscape:groupmode="layer"
     id="layer1"
     transform="translate(498.09865,-111.93124)">
    <g
       id="g940">
      <g
         transform="matrix(0.30359727,0,0,0.30359727,-506.11362,105.5557)"
         id="g1050">
        <g
           id="g975">
          <path
             inkscape:connector-curvature="0"
             d="m 192.3,60.7 h 18.5 c 4.3,0 7.6,1 9.7,2.9 2.2,1.9 3.2,4.6 3.2,7.9 0,3.4 -1.3,5.9 -3.9,7.7 3.5,2.2 5.2,5.2 5.3,9.1 0,3.9 -1.3,7.1 -3.9,9.5 -2.6,2.4 -6.1,3.6 -10.3,3.5 h -18.6 z m 7.9,7.6 V 76 h 11.7 c 1,0 1.8,-0.4 2.5,-1.1 0.7,-0.7 1,-1.7 1.1,-2.9 0,-1.2 -0.3,-2.1 -1,-2.8 -0.7,-0.6 -1.5,-1 -2.6,-1 z m 0,15 v 10.5 h 11 c 1.5,0 2.8,-0.5 4,-1.4 1.1,-0.9 1.7,-2.2 1.7,-3.8 0,-1.7 -0.5,-3 -1.6,-3.9 -1.1,-0.9 -2.4,-1.4 -4,-1.3 h -11.1 z"
             id="path961" />
          <path
             inkscape:connector-curvature="0"
             d="m 252.3,96.9 c -3.5,3.4 -7.4,5 -11.7,4.9 -4.3,-0.1 -7.7,-1.6 -10.1,-4.4 -2.4,-2.8 -3.6,-6.7 -3.6,-11.6 0,-4.9 1.4,-8.7 4,-11.5 2.6,-2.8 5.8,-4.2 9.4,-4.2 3.7,0 6.9,1.5 9.6,4.4 2.7,3 3.8,7.6 3.4,14 h -18.4 c 0.1,1 0.5,2.2 1.4,3.5 0.8,1.3 2.4,2 4.7,2.2 2.3,0.2 4.1,-0.6 5.6,-2.3 z M 235.1,82.4 h 10.3 c -0.2,-1.4 -0.7,-2.7 -1.5,-3.7 -0.8,-1 -2,-1.5 -3.7,-1.6 -1.7,0 -2.9,0.5 -3.7,1.5 -0.7,1.1 -1.2,2.3 -1.4,3.8 z"
             id="path963" />
          <path
             inkscape:connector-curvature="0"
             d="m 264.9,70.8 v 1.8 c 2.6,-1.8 5.3,-2.7 8.1,-2.5 2.8,0.2 5.3,1.3 7.3,3.3 2,2 3,5.3 3,9.7 v 18.3 h -7.9 V 82.8 c 0,-1.3 -0.5,-2.5 -1.5,-3.5 -1,-1.1 -2.2,-1.6 -3.8,-1.6 -1.6,0 -2.8,0.5 -3.8,1.5 -1,1 -1.4,2.2 -1.4,3.5 v 18.6 h -8 l -0.1,-30.5 z"
             id="path965" />
          <path
             inkscape:connector-curvature="0"
             d="m 305.2,101.4 v -2.2 c -1.8,1.9 -4.2,2.8 -7,2.8 -2.8,-0.1 -5.5,-1.4 -7.8,-3.9 -2.4,-2.5 -3.5,-6.6 -3.5,-12.1 0,-5.5 1.2,-9.6 3.5,-12.1 2.4,-2.5 5,-3.8 7.8,-3.8 2.8,0 5.2,0.8 7,2.3 v -9.5 l 7.9,-4 v 42.5 z m 0,-9.8 V 80.4 c -1.7,-1.8 -3.4,-2.6 -5.1,-2.6 -1.7,0 -2.9,0.6 -3.8,1.8 -0.8,1.2 -1.3,3.1 -1.3,5.8 0,2.7 0.5,4.9 1.4,6.5 0.9,1.6 2.2,2.4 3.9,2.4 1.8,0 3.4,-0.9 4.9,-2.7 z"
             id="path967" />
          <path
             inkscape:connector-curvature="0"
             d="m 322.2,59.3 c 1.4,0 2.4,0.5 3.2,1.4 0.8,1 1.2,2 1.2,3.2 0,1.2 -0.4,2.3 -1.1,3.2 -0.8,0.9 -1.9,1.4 -3.3,1.4 -1.4,0 -2.6,-0.5 -3.4,-1.4 -0.8,-1 -1.3,-2 -1.3,-3.2 0,-1.2 0.4,-2.2 1.3,-3.2 0.9,-0.9 2,-1.4 3.4,-1.4 z m -4,11.5 h 7.9 v 30.5 h -7.9 z"
             id="path969" />
          <path
             inkscape:connector-curvature="0"
             d="m 347.7,70.8 h 7.9 v 26.6 c 0,5.4 -1,9.1 -3.1,11.1 -2,2 -5.4,3.3 -10,3.9 l -2.9,-6.3 c 2.7,-0.2 4.8,-0.8 6.1,-1.7 1.3,-0.9 2,-2.7 2,-5.2 -2,1.8 -4.4,2.7 -7.1,2.7 -2.7,0 -5.3,-1.2 -7.6,-3.8 -2.3,-2.6 -3.5,-6.6 -3.6,-11.8 -0.1,-5.3 1.1,-9.3 3.4,-12.1 2.4,-2.8 5.2,-4.1 8.4,-4 3.2,0.1 5.4,0.9 6.4,2.5 v -1.9 z m 0,20.8 V 80.2 c -1.8,-1.8 -3.5,-2.6 -5.1,-2.5 -1.6,0.1 -2.8,0.8 -3.7,2 -0.9,1.3 -1.3,3.2 -1.4,5.8 0,2.6 0.4,4.7 1.4,6.4 1,1.6 2.4,2.4 4.1,2.4 1.8,0 3.3,-0.9 4.7,-2.7 z"
             id="path971" />
          <path
             inkscape:connector-curvature="0"
             d="m 386.2,86.1 c 0,5.4 -1.4,9.4 -4.1,12 -2.7,2.6 -6,3.9 -9.7,3.8 -3.8,-0.1 -6.9,-1.6 -9.5,-4.5 -2.6,-2.9 -3.9,-6.8 -3.9,-11.7 0,-4.9 1.3,-8.8 3.9,-11.5 2.6,-2.7 5.8,-4.1 9.4,-4.1 3.6,0 6.8,1.2 9.7,3.8 2.7,2.5 4.2,6.6 4.2,12.2 z m -8.1,0 c 0,-2.6 -0.5,-4.5 -1.4,-6 -1,-1.4 -2.3,-2.1 -4,-2.2 -1.7,0 -3.1,0.6 -4.1,2 -1,1.4 -1.6,3.3 -1.6,5.8 0,2.5 0.5,4.5 1.4,6 1,1.5 2.3,2.2 4,2.3 1.7,0 3.1,-0.7 4.1,-2.3 1.1,-1.6 1.6,-3.4 1.6,-5.6 z"
             id="path973" />
        </g>
        <g
           id="g985">
          <path
             inkscape:connector-curvature="0"
             d="M 192.2,108.3 H 226 v 8.7 h -12.6 v 35.1 h -9.1 V 117 h -12.1 z"
             id="path977" />
          <path
             inkscape:connector-curvature="0"
             d="m 236.1,108.3 h 8.3 l 16.6,43.8 h -9.7 l -3.9,-9.5 h -15.6 l -3,9.5 h -9.6 z m -1.4,25.9 10.1,0.1 -5.1,-14.7 z"
             id="path979" />
          <path
             inkscape:connector-curvature="0"
             d="m 262.1,108.3 h 31.2 v 8.7 h -22.5 v 8.2 h 13 v 8.7 h -13 v 18.2 h -8.7 z"
             id="path981" />
          <path
             inkscape:connector-curvature="0"
             d="m 295.6,108.3 h 29.9 v 8.7 h -21.2 v 7.8 h 12.6 v 8.2 h -12.6 v 10.8 h 22.5 v 8.2 h -31.2 z"
             id="path983" />
        </g>
        <g
           id="g1012">
          <linearGradient
             id="SVGID_1_"
             gradientUnits="userSpaceOnUse"
             x1="125.2644"
             y1="42.6147"
             x2="140.97411"
             y2="165.11749"
             gradientTransform="matrix(0.9919,0.1272,-0.1272,0.9919,37.5692,-29.2969)">
            <stop
               offset="0"
               style="stop-color:#00110C"
               id="stop987" />
            <stop
               offset="0.5306"
               style="stop-color:#00928F"
               id="stop989" />
          </linearGradient>
          <polygon
             style="fill:url(#SVGID_1_)"
             class="st0"
             points="137.6,114.9 175.2,152.4 175.2,60.5 157.2,28.9 "
             id="polygon992" />
          <polygon
             style="fill:#da0962"
             class="st1"
             points="87.4,67.8 175.2,60.5 157.2,28.9 96.7,21 "
             id="polygon994" />
          <linearGradient
             id="SVGID_2_"
             gradientUnits="userSpaceOnUse"
             x1="2.1401999"
             y1="104.2155"
             x2="71.840401"
             y2="95.277199"
             gradientTransform="matrix(0.9919,0.1272,-0.1272,0.9919,37.5692,-29.2969)">
            <stop
               offset="0"
               style="stop-color:#004473"
               id="stop996" />
            <stop
               offset="0.4982"
               style="stop-color:#0079C0"
               id="stop998" />
          </linearGradient>
          <polygon
             style="fill:url(#SVGID_2_)"
             class="st2"
             points="26.4,127.7 87.4,67.8 96.7,21 26.4,61.3 "
             id="polygon1001" />
          <polygon
             style="fill:#f37b20"
             class="st3"
             points="26.4,127.7 26.4,61.3 79.9,144.1 53.2,185.7 "
             id="polygon1003" />
          <linearGradient
             id="SVGID_3_"
             gradientUnits="userSpaceOnUse"
             x1="53.184601"
             y1="150.3056"
             x2="175.1543"
             y2="150.3056">
            <stop
               offset="0"
               style="stop-color:#61035F"
               id="stop1005" />
            <stop
               offset="0.4982"
               style="stop-color:#90278E"
               id="stop1007" />
          </linearGradient>
          <polygon
             style="fill:url(#SVGID_3_)"
             class="st4"
             points="53.2,185.7 79.9,144.1 137.6,114.9 175.2,152.4 "
             id="polygon1010" />
        </g>
      </g>
      <g
         transform="matrix(0.3943262,0,0,0.3943262,-381.19095,108.00325)"
         id="g1113">
        <polygon
           style="fill:#0b0204"
           id="polygon1089"
           points="60.1,97.6 80.3,97.6 55.6,70.5 80.3,43.4 60,43.4 36.7,68.9 36.7,17.5 18,17.5 18,51.5 "
           class="st0" />
        <polygon
           style="fill:#fcb813"
           id="polygon1091"
           points="18,51.6 18,97.6 60,97.6 "
           class="st1" />
        <polygon
           style="fill:#fcb813"
           id="polygon1093"
           points="61.5,70.5 74.5,56.2 74.5,84.8 "
           class="st1" />
        <polygon
           style="fill:#0b0204"
           id="polygon1095"
           points="110.6,69.6 110.2,69.6 110.2,97.6 105.1,97.6 105.1,43.4 110.2,43.4 110.2,67.3 110.6,67.3 136.8,43.4 143.8,43.4 116.4,68.2 145.3,97.6 138.1,97.6 "
           class="st0" />
        <path
           style="fill:#0b0204"
           inkscape:connector-curvature="0"
           id="path1097"
           d="m 166.2,48.9 -12.6,29.7 h 24.8 z m -2.4,-5.5 h 5.2 l 22.8,54.1 h -5.7 l -5.9,-14.4 h -28.7 l -6.1,14.4 h -5.3 z"
           class="st0" />
        <polygon
           style="fill:#0b0204"
           id="polygon1099"
           points="234.4,90.8 234.6,90.8 234.6,43.4 239.7,43.4 239.7,97.6 233.2,97.6 200.2,50.2 200.1,50.2 200.1,97.6 195,97.6 195,43.4 201.5,43.4 "
           class="st0" />
        <g
           id="g1103">
          <path
             style="fill:#0b0204"
             inkscape:connector-curvature="0"
             id="path1101"
             d="m 294.5,94 c -6.3,3.6 -13.1,4.9 -20.2,4.9 -16.5,0 -28,-11.9 -28,-28.4 0,-16.5 11.5,-28.4 28,-28.4 8,0 14.5,2.4 19.5,7.5 l -3.7,3.8 c -3.3,-4 -9.9,-6.7 -15.8,-6.7 -14.1,0 -22.9,10.4 -22.9,23.9 0,13.4 8.8,23.9 22.9,23.9 5.8,0 11,-0.8 15.1,-3.2 V 72.9 h -13 v -4.6 h 18 V 94 Z"
             class="st0" />
        </g>
        <path
           style="fill:#0b0204"
           inkscape:connector-curvature="0"
           id="path1105"
           d="M 323.7,48.9 311.1,78.6 H 336 Z m -2.3,-5.5 h 5.2 l 22.8,54.1 h -5.7 L 337.8,83.1 H 309.1 L 303,97.6 h -5.3 z"
           class="st0" />
        <polygon
           style="fill:#0b0204"
           id="polygon1107"
           points="392,90.8 359.1,43.4 352.6,43.4 352.6,97.6 357.6,97.6 357.6,50.2 357.8,50.2 390.7,97.6 397.2,97.6 397.2,43.4 392.2,43.4 392.2,90.8 "
           class="st0" />
        <g
           id="g1111">
          <path
             style="fill:#0b0204"
             inkscape:connector-curvature="0"
             id="path1109"
             d="M 256.5,108.2 H 269 v 1.7 h -10.6 v 7.2 h 9.9 v 1.7 h -9.9 v 7.9 h 11 v 1.7 h -12.9 z m -15.5,1.7 h -7 v -1.7 h 15.8 v 1.7 h -7 v 18.6 H 241 Z m -13.1,10.8 c 0,4.3 -1.9,8.3 -7.4,8.3 -5.6,0 -7.4,-4 -7.4,-8.3 v -12.6 h 1.9 v 12.1 c 0,2.9 0.8,7.1 5.5,7.1 4.7,0 5.5,-4.2 5.5,-7.1 v -12.1 h 1.9 z m -30.5,-10.8 h -7 v -1.7 h 15.8 v 1.7 h -7 v 18.6 h -1.9 v -18.6 z m -16.1,-1.7 h 1.9 v 20.4 h -1.9 z m -16,1.7 h -7 v -1.7 h 15.8 v 1.7 h -7 v 18.6 h -1.9 v -18.6 z m -23.4,14.9 c 1,1.7 2.7,2.6 4.7,2.6 2.6,0 4.6,-1.6 4.6,-4 0,-5.7 -10.5,-2.4 -10.5,-10.1 0,-3.6 3.1,-5.6 6.5,-5.6 2.2,0 4.2,0.8 5.5,2.6 l -1.6,1.2 c -0.9,-1.3 -2.2,-2 -4,-2 -2.4,0 -4.6,1.3 -4.6,3.9 0,6.1 10.5,2.4 10.5,10.1 0,3.7 -3,5.7 -6.3,5.7 -2.7,0 -5,-0.9 -6.6,-3.1 z m -25.3,-16.6 h 2.4 l 12.4,17.8 h 0.1 v -17.8 h 1.9 v 20.4 H 131 l -12.4,-17.8 h -0.1 v 17.8 h -1.9 z m -11.5,0 h 1.9 v 20.4 h -1.9 z"
             class="st0" />
        </g>
      </g>
    </g>
  </g>
  <style
     id="style959"
     type="text/css">
	.st0{fill:url(#SVGID_1_);}
	.st1{fill:#DA0962;}
	.st2{fill:url(#SVGID_2_);}
	.st3{fill:#F37B20;}
	.st4{fill:url(#SVGID_3_);}
</style>
</svg>
